g 01_Poplar_cross
v 0.2111111 0.03141901 0.009522868
v -0.1354103 0.03141901 0.009522868
v -2.042753 2.953762 0.009523207
v 2.469365 2.953763 0.009522142
v 1.582974 5.980875 0.00952219
v -1.732772 5.980873 0.009523062
v 0.3776886 7.79697 -0.07532161
v -1.073646 7.779531 -0.07532113
v -0.08523123 5.980874 1.659421
v -0.09849786 7.615336 0.4847897
v -0.09849863 7.84009 -0.6455938
v -0.08522968 5.980874 -2.158198
v 0.06070172 2.953763 1.960601
v 0.06070095 2.953762 -2.635896
v 0.004343921 0.03141901 0.150197
v 0.06070172 2.953763 1.960601
v 0.06070095 2.953762 -2.635896
v 0.004343146 0.03141901 -0.2210004
v 0.004352448 0.03141901 -0.2225172
v 0.06070947 2.953762 -2.633744
v 0.06071025 2.953763 1.965688
v 0.004352448 0.03141901 0.1506028
v 0.06071025 2.953763 1.965688
v 0.06070947 2.953762 -2.633744
v -0.08522271 5.980874 -2.154172
v -0.08522271 5.980874 1.660697
v -0.09849011 7.84009 -0.645353
v -0.09848934 7.614627 0.4829944
v 0.2050332 0.03141863 0.009530329
v 2.475003 2.953763 0.009529311
v -2.044663 2.953762 0.009531056
v -0.1391806 0.03141863 0.009530474
v 1.592685 5.980875 0.009529506
v -1.735433 5.980873 0.009530813
v 0.3760825 7.799437 -0.07531405
v -1.078371 7.782699 -0.07531347
vt 0.6316197 0
vt 0.6205255 0
vt 0.5594606 0.3742433
vt 0.7039192 0.3742435
vt 0.6755407 0.7619038
vt 0.5693849 0.7619036
vt 0.6369527 0.994478
vt 0.5904872 0.9922446
vt 0.3221775 0.7619037
vt 0.3597841 0.9712176
vt 0.3959741 1
vt 0.4444012 0.7619037
vt 0.312535 0.3742434
vt 0.459695 0.3742434
vt 0.3704963 0
vt 0.312535 0.3742434
vt 0.459695 0.3742434
vt 0.3823805 0
vt 0.8675709 0
vt 0.7903739 0.3742434
vt 0.9376279 0.3742434
vt 0.8795167 0
vt 0.9376279 0.3742434
vt 0.7903739 0.3742434
vt 0.8057277 0.7619036
vt 0.9278634 0.7619036
vt 0.8540336 1
vt 0.8901584 0.9711267
vt 0.118575 0
vt 0.04590033 0.3742436
vt 0.1906005 0.3742433
vt 0.1295952 0
vt 0.07414836 0.7619037
vt 0.1807003 0.7619035
vt 0.1130987 0.9947939
vt 0.159664 0.9926504
vn 0 0 1
vn 0 0 1
vn 0 0 1
vn 0 0 1
vn 0 0 1
vn 0 0 1
vn -0.0001711826 0.04686573 0.9989011
vn -0.0001711826 0.04686573 0.9989011
vn 0.9999714 0.007561854 0.0003436384
vn 0.9999714 0.007561854 0.0003436384
vn 0.9999714 0.007561854 0.0003436384
vn 0.9999714 0.007561854 0.0003436384
vn 0.99884 0.04815235 0
vn 0.99884 0.04815235 0
vn 0.9998141 -0.01928159 0
vn 0.9998141 -0.01928159 0
vn 0.9998141 -0.01928159 0
vn 0.9998141 -0.01928159 0
vn -0.9998141 0.01928144 0
vn -0.9998141 0.01928144 0
vn -0.9998141 0.01928144 0
vn -0.9998141 0.01928144 0
vn -0.99884 -0.0481526 0
vn -0.99884 -0.04815261 0
vn -0.99884 -0.04815261 0
vn -0.99884 -0.04815261 0
vn -0.9999714 -0.007563507 -0.0003448179
vn -0.9999714 -0.007563507 -0.0003448179
vn 0 0 -1
vn 0 0 -1
vn 0 0 -1
vn 0 0 -1
vn 0 0 -1
vn 0 0 -1
vn 0.0001633852 -0.04679345 -0.9989046
vn 0.0001633852 -0.04679346 -0.9989046
g 01_Poplar_cross_0
f 3/3/3 2/2/2 1/1/1
f 4/4/4 3/3/3 1/1/1
f 3/3/3 4/4/4 5/5/5
f 6/6/6 3/3/3 5/5/5
f 6/6/6 5/5/5 7/7/7
f 8/8/8 6/6/6 7/7/7
f 11/11/11 10/10/10 9/9/9
f 12/12/12 11/11/11 9/9/9
f 12/12/12 9/9/9 13/13/13
f 14/14/14 12/12/12 13/13/13
f 17/17/17 16/16/16 15/15/15
f 18/18/18 17/17/17 15/15/15
f 21/21/21 20/20/20 19/19/19
f 22/22/22 21/21/21 19/19/19
f 25/25/25 24/24/24 23/23/23
f 26/26/26 25/25/25 23/23/23
f 27/27/27 25/25/25 26/26/26
f 28/28/28 27/27/27 26/26/26
f 31/31/31 30/30/30 29/29/29
f 32/32/32 31/31/31 29/29/29
f 33/33/33 30/30/30 31/31/31
f 34/34/34 33/33/33 31/31/31
f 35/35/35 33/33/33 34/34/34
f 36/36/36 35/35/35 34/34/34
