g 05_Poplar_cross
v -0.02251335 0.7606078 0.617763
v -0.02251335 0.7606078 -1.07882
v -0.02251025 8.001906 -6.579092
v -0.02250715 8.001906 6.418338
v -0.02251335 17.54457 4.896137
v -0.02251025 17.54457 -6.884279
v -0.02251025 22.82143 -1.475786
v -0.02251025 22.58122 1.000707
v -0.02253506 17.54457 4.922413
v -0.02253506 17.54457 -6.883725
v -0.02253506 8.001906 -6.577725
v -0.02253196 8.001907 6.427829
v -0.02253506 22.82478 -1.483022
v -0.02253506 22.58087 1.000421
v -0.02253506 0.7606086 0.5618926
v -0.02253506 0.7606078 -1.078169
v -5.480527 17.54457 -0.222625
v 5.73294 17.54457 -0.2226279
v 7.345737 8.001905 -0.2226277
v -7.750488 8.001911 -0.2226242
v -2.174866 21.98431 -0.2226261
v 3.191355 23.46207 -0.2226275
v -0.8735498 0.7606071 -0.2690235
v 1.949531 0.7606071 -0.2690237
v -2.200445 21.96817 -0.2226023
v -5.467951 17.54457 -0.2226008
v 5.752359 17.54457 -0.2226052
v 3.173031 23.47072 -0.2226044
v 7.287506 8.001906 -0.2226054
v -7.744259 8.001911 -0.2225996
v -0.8735188 0.7606071 -0.2689997
v 1.957018 0.7606071 -0.2690004
vt 0.8826908 0
vt 0.865248 0
vt 0.8086989 0.2977955
vt 0.9423274 0.2977955
vt 0.9266774 0.6902338
vt 0.8055612 0.6902338
vt 0.8611668 0.9072424
vt 0.8866279 0.897364
vt 0.3230524 0.6902338
vt 0.4444331 0.6902338
vt 0.441287 0.2977955
vt 0.307575 0.2977955
vt 0.3889076 0.9073803
vt 0.363375 0.8973496
vt 0.3678836 0
vt 0.3847453 0
vt 0.5688854 0.6902338
vt 0.6841727 0.6902337
vt 0.7007542 0.2977954
vt 0.5455477 0.2977957
vt 0.6028714 0.8728163
vt 0.6580424 0.9335885
vt 0.6162505 0
vt 0.645275 0
vt 0.1473915 0.8721522
vt 0.1809853 0.6902338
vt 0.06562762 0.6902337
vt 0.09214603 0.9339442
vt 0.04984452 0.2977955
vt 0.2043883 0.2977957
vt 0.1337492 0
vt 0.1046481 0
vn -1 0 0
vn -1 0 0
vn -1 0 0
vn -1 0 0
vn -1 0 0
vn -1 0 0
vn -1 0 0
vn -1 0 0
vn 1 0 0
vn 1 0 0
vn 1 0 0
vn 1 0 0
vn 1 0 0
vn 1 0 0
vn 1 0 0
vn 1 0 0
vn 0 0 1
vn 0 0 1
vn 0 0 1
vn 0 0 1
vn 0 0 1
vn 0 0 1
vn 0 -0.006407212 0.9999795
vn 0 -0.006407212 0.9999795
vn 0 0 -1
vn 0 0 -1
vn 0 0 -1
vn 0 0 -1
vn 0 0 -1
vn 0 0 -1
vn 0 0.006407182 -0.9999795
vn 0 0.006407181 -0.9999795
g 05_Poplar_cross_0
f 3/3/3 2/2/2 1/1/1
f 4/4/4 3/3/3 1/1/1
f 3/3/3 4/4/4 5/5/5
f 6/6/6 3/3/3 5/5/5
f 6/6/6 5/5/5 7/7/7
f 5/5/5 8/8/8 7/7/7
f 11/11/11 10/10/10 9/9/9
f 12/12/12 11/11/11 9/9/9
f 9/9/9 10/10/10 13/13/13
f 14/14/14 9/9/9 13/13/13
f 11/11/11 12/12/12 15/15/15
f 16/16/16 11/11/11 15/15/15
f 19/19/19 18/18/18 17/17/17
f 20/20/20 19/19/19 17/17/17
f 17/17/17 18/18/18 21/21/21
f 18/18/18 22/22/22 21/21/21
f 20/20/20 23/23/23 19/19/19
f 23/23/23 24/24/24 19/19/19
f 27/27/27 26/26/26 25/25/25
f 28/28/28 27/27/27 25/25/25
f 27/27/27 29/29/29 26/26/26
f 29/29/29 30/30/30 26/26/26
f 31/31/31 30/30/30 29/29/29
f 32/32/32 31/31/31 29/29/29
