g 07_Poplar_cross
v -0.6264063 0.7173089 0.003547845
v 0.578686 0.7173089 0.003547458
v 6.578347 8.274632 0.08409932
v -7.259065 8.274636 0.08410475
v -5.775022 17.21883 0.003549202
v 6.278728 17.21882 0.003544551
v 1.357271 25.2465 0.003546101
v -0.03329835 0.7173097 0.6602752
v -0.03329526 0.7173097 -1.008991
v -0.03329835 8.274634 -4.383234
v -0.03329835 8.274634 5.093225
v -0.03332626 0.7173097 0.6188293
v -0.03332626 8.274634 5.086357
v -0.03332936 8.274634 -4.396829
v -0.03332626 0.7173097 -1.044223
v -0.6336834 0.7173097 0.003523622
v -7.263298 8.274636 0.08407936
v 6.54954 8.274632 0.08407607
v 0.5423347 0.7173097 0.003523235
v -5.771587 17.21883 0.00352401
v 6.247782 17.21882 0.003521103
v 1.355522 25.24177 0.003522072
v 0.4623551 17.21882 -7.132126
v 0.4623551 17.21883 8.380842
v -0.03329835 8.274634 5.093225
v -0.03329835 8.274634 -4.383234
v 0.4623303 17.21882 -7.141798
v -0.03332936 8.274634 -4.396829
v -0.03332626 8.274634 5.086357
v 0.4623334 17.21882 8.340995
v 1.333164 25.11382 0.02237131
v 0.4623551 17.21883 8.380842
v 0.4623551 17.21882 -7.132126
v 1.333136 25.1066 0.003543388
v 0.4623303 17.21882 -7.141798
v 0.4623334 17.21882 8.340995
vt 0.1309084 0
vt 0.1189033 0
vt 0.05913534 0.3011411
vt 0.1969823 0.3011414
vt 0.1821983 0.6575458
vt 0.06212009 0.6575456
vt 0.1111472 0.9774292
vt 0.8815424 0
vt 0.8649133 0
vt 0.8312995 0.3011412
vt 0.925703 0.3011412
vt 0.3688705 0
vt 0.3243654 0.3011412
vt 0.418836 0.3011412
vt 0.3854377 0
vt 0.6190192 0
vt 0.5529756 0.3011413
vt 0.6905777 0.3011411
vt 0.6307346 0
vt 0.5678359 0.6575458
vt 0.6875716 0.6575456
vt 0.6388354 0.9772407
vt 0.8039153 0.6575457
vt 0.9584539 0.6575458
vt 0.925703 0.3011412
vt 0.8312995 0.3011412
vt 0.4461811 0.6575457
vt 0.418836 0.3011412
vt 0.3243654 0.3011412
vt 0.2919431 0.6575457
vt 0.8751877 0.9721425
vt 0.9584539 0.6575458
vt 0.8039153 0.6575457
vt 0.3749999 0.9718544
vt 0.4461811 0.6575457
vt 0.2919431 0.6575457
vn 0 0.0106585 -0.9999433
vn 0 0.01065849 -0.9999433
vn 0 0.01065849 -0.9999433
vn 0 0.01065849 -0.9999433
vn 0 -0.00900603 -0.9999595
vn 0 -0.009006028 -0.9999595
vn 0 0 -1
vn -1 0 0
vn -1 0 0
vn -1 0 0
vn -1 0 0
vn 1 0 0
vn 1 0 0
vn 1 0 0
vn 1 0 0
vn 0 -0.01065849 0.9999433
vn 0 -0.01065849 0.9999433
vn 0 -0.01065849 0.9999433
vn 0 -0.01065849 0.9999433
vn 0 0.00900604 0.9999595
vn 0 0.00900604 0.9999595
vn 0 0 1
vn -0.998468 0.05533133 0
vn -0.998468 0.05533133 0
vn -0.998468 0.05533134 0
vn -0.998468 0.05533133 0
vn 0.998468 -0.05533203 0
vn 0.998468 -0.05533203 0
vn 0.998468 -0.05533204 0
vn 0.998468 -0.05533203 0
vn -0.993972 0.1096339 0
vn -0.993972 0.1096339 0
vn -0.993972 0.1096339 0
vn 0.9939612 -0.1097326 0
vn 0.9939612 -0.1097326 0
vn 0.9939612 -0.1097326 0
g 07_Poplar_cross_0
f 3/3/3 2/2/2 1/1/1
f 4/4/4 3/3/3 1/1/1
f 3/3/3 4/4/4 5/5/5
f 6/6/6 3/3/3 5/5/5
f 6/6/6 5/5/5 7/7/7
f 10/10/10 9/9/9 8/8/8
f 11/11/11 10/10/10 8/8/8
f 14/14/14 13/13/13 12/12/12
f 15/15/15 14/14/14 12/12/12
f 18/18/18 17/17/17 16/16/16
f 19/19/19 18/18/18 16/16/16
f 17/17/17 18/18/18 20/20/20
f 18/18/18 21/21/21 20/20/20
f 20/20/20 21/21/21 22/22/22
f 25/25/25 24/24/24 23/23/23
f 26/26/26 25/25/25 23/23/23
f 29/29/29 28/28/28 27/27/27
f 30/30/30 29/29/29 27/27/27
f 33/33/33 32/32/32 31/31/31
f 36/36/36 35/35/35 34/34/34
