g 08_Poplar_cross
v 0.7732396 0.8952686 0.007043756
v 4.687059 7.686119 0.007042012
v -3.45515 7.686123 0.007045113
v -0.5375299 0.8952686 0.007044337
v 7.118595 16.7421 0.007040655
v -8.29416 16.74211 0.007046663
v -0.4569488 22.36663 0.007043369
v 0.00449895 0.8952694 -0.5084537
v 0.00449895 7.686121 -6.243006
v 0.00449895 7.686121 5.300261
v 0.00449895 0.8952694 0.7338978
v 0.004495849 16.74211 6.018826
v 0.004495849 16.74211 -7.305202
v 0.00449895 22.66394 0.3298008
v 0.004474145 0.8952694 -0.5089201
v 0.004474145 0.8952686 0.7213335
v 0.004474145 7.686121 5.260877
v 0.004474145 7.686121 -6.23998
v 0.004474145 16.74211 6.004419
v 0.004474145 16.74211 -7.31156
v 0.004474145 22.66525 0.3302331
v 0.7968847 0.8952694 0.007020889
v -0.4807304 0.8952694 0.007021277
v -3.409857 7.686121 0.007021664
v 4.706581 7.686118 0.007019727
v 7.140711 16.7421 0.007018564
v -8.329693 16.74211 0.007022246
v -0.452298 22.35036 0.007020114
vt 0.1169427 0
vt 0.07592182 0.2847006
vt 0.1612606 0.2847007
vt 0.1306809 0
vt 0.05043679 0.6643649
vt 0.2119784 0.6643651
vt 0.1298363 0.9001682
vt 0.8695971 0
vt 0.8094932 0.2847006
vt 0.9304786 0.2847006
vt 0.8826183 0
vt 0.9380099 0.6643651
vt 0.7983602 0.6643651
vt 0.878383 0.9126327
vt 0.3804077 0
vt 0.3675134 0
vt 0.3199342 0.2847006
vt 0.4404751 0.2847006
vt 0.3121412 0.6643651
vt 0.4517064 0.6643651
vt 0.3716125 0.912688
vt 0.6333051 0
vt 0.6199144 0
vt 0.5892141 0.2847007
vt 0.6742828 0.2847005
vt 0.699795 0.664365
vt 0.5376492 0.6643653
vt 0.6202124 0.8994861
vn 0 0 -1
vn 0 0 -1
vn 0 0 -1
vn 0 0 -1
vn 0 0 -1
vn 0 0 -1
vn 0 0 -1
vn -1 0 0
vn -1 0 0
vn -1 0 0
vn -1 0 0
vn -1 0 0
vn -1 0 0
vn -1 0 0
vn 1 0 0
vn 1 0 0
vn 1 0 0
vn 1 0 0
vn 1 0 0
vn 1 0 0
vn 1 0 0
vn 0 0 1
vn 0 0 1
vn 0 0 1
vn 0 0 1
vn 0 0 1
vn 0 0 1
vn 0 0 1
g 08_Poplar_cross_0
f 3/3/3 2/2/2 1/1/1
f 4/4/4 3/3/3 1/1/1
f 2/2/2 3/3/3 5/5/5
f 3/3/3 6/6/6 5/5/5
f 5/5/5 6/6/6 7/7/7
f 10/10/10 9/9/9 8/8/8
f 11/11/11 10/10/10 8/8/8
f 9/9/9 10/10/10 12/12/12
f 13/13/13 9/9/9 12/12/12
f 13/13/13 12/12/12 14/14/14
f 17/17/17 16/16/16 15/15/15
f 18/18/18 17/17/17 15/15/15
f 17/17/17 18/18/18 19/19/19
f 18/18/18 20/20/20 19/19/19
f 19/19/19 20/20/20 21/21/21
f 24/24/24 23/23/23 22/22/22
f 25/25/25 24/24/24 22/22/22
f 24/24/24 25/25/25 26/26/26
f 27/27/27 24/24/24 26/26/26
f 27/27/27 26/26/26 28/28/28
