g flower_chamomile_01_detailed_2_LOD1
v -0.09748211 0.3218686 -0.06460151
v -0.1229988 0.4679624 -0.0787302
v -0.06437156 0.4951189 -0.03114334
v -0.01278849 0.1881799 -0.003065458
v -0.009393107 0.1605223 0.008083167
v 0.03614281 0.3159365 -0.1406961
v 0.07325763 0.2579459 -0.1171679
v -0.1148375 0.3161035 0.06142712
v -0.04889727 0.3517681 0.21345
v -0.1605486 0.4654104 0.1790529
v 0.001526773 0.1912062 -0.004411593
v -0.005940735 0.3535751 -0.001637585
v -0.1182811 0.4830642 -0.1307964
v -0.05905432 0.4889115 -0.1547418
v -0.03448062 0.5216323 0.1370455
v -0.03007089 0.4192651 0.006033815
v 0.01291303 0.5202093 0.1275479
v 0.03685674 0.5591313 -0.07249737
v -0.0347596 0.3748264 -0.07832015
v 0.05354456 0.4700688 -0.131098
v 0.02746358 0.3243518 0.02732184
v 0.1251871 0.466473 0.1333753
v 0.06064925 0.4978945 0.08993428
v 0.0008618832 0.3636998 0.07892986
v 0.0001055409 -0.01074721 9.501772E-05
v 0.03281469 0.1006379 0.06412722
v -0.06718796 0.6079958 0.2957617
v -0.07700067 0.6120558 0.07202142
v -0.002650559 0.5848925 -0.012769
v -0.09213623 0.6636985 -0.07041377
v -0.04848084 0.5588575 -0.1453096
v -0.002650559 0.5848925 -0.012769
v -0.01754188 -0.01763567 -0.03043983
v -0.04848084 0.5588575 -0.1453096
v 0.001974225 -0.0619223 -0.001274943
v 0.04202153 0.4319216 -0.01374538
v 0.1505899 0.4336092 -0.1421298
v -0.0905017 0.4130113 0.02843636
v 0.1368337 0.6619047 -0.04380126
v -0.2565753 0.5671746 0.08139785
v -0.0905017 0.4130113 0.02843636
v -0.1719541 0.3765901 0.1350802
v 0.001974225 -0.0619223 -0.001274943
v 0.1518001 0.4797749 0.07057815
v -0.001461183 0.4088143 0.0002641464
v 0.1827849 0.6573141 0.02778905
v -0.01649501 0.3940049 0.1586322
v -0.07427576 0.2396439 0.04206988
v 0.03390297 0.3270949 0.1241727
v 0.1191893 0.3106185 0.1265994
v 0.04589432 0.1684876 0.05566747
v 0.1551046 0.3525679 0.06612828
v -0.01003498 0.3163026 0.1851243
v 0.01936474 0.3084915 0.1414962
v 0.01436401 0.1767896 0.09799846
v -0.0241908 0.6618969 -0.1270326
v -0.01917559 0.6533558 -0.009493258
v -0.1282316 0.6241804 -0.06236349
v -0.06470896 0.6163876 0.05503585
v -0.004250782 0.6288645 0.1316485
v -0.1169839 0.6132128 0.1527709
v 0.1569728 0.6518757 -0.07643499
v 0.1177128 0.666593 0.03598301
v 0.04060248 0.6750194 -0.04389186
v 0.07172666 0.6719069 -0.05633738
v 0.07546085 0.6716393 0.01560494
v -4.997849E-05 0.6821875 -0.008639472
v 0.04050025 0.6837187 -0.04304279
v 0.005460352 0.6732582 0.07613961
v -0.08909619 0.6723263 -0.01501025
v 0.06623515 0.5700994 0.105953
v 0.06759106 0.556708 0.1871254
v -0.01965354 0.5798839 0.1521739
v 0.03387922 0.5607783 0.157088
v 0.04821335 0.5558282 0.1520529
v 0.006011426 0.4672224 0.1437699
v -0.2862263 0.4743561 -0.03703792
v -0.1746244 0.5148479 -0.08823538
v -0.1812118 0.5166745 0.02380509
v -0.09209403 0.3192083 -0.02593338
v -0.2220151 0.4950488 -0.03764026
v -0.06647056 0.313187 -0.09309689
v 0.03228816 0.3966193 -0.1418937
v 0.06715463 0.3958859 -0.06498391
v -0.01211582 0.3981522 -0.06817126
v 0.03349021 0.393585 -0.09423142
v 0.0282084 0.2067452 -0.0754071
v 0.04861018 0.2914429 -0.05927814
vt 0.7293841 0.1070901
vt 0.7313869 0.1442791
vt 0.7513524 0.1462271
vt 0.7465177 0.06825307
vt 0.7388206 0.002940446
vt 0.7439862 0.06337905
vt 0.7554989 0.04603976
vt 0.7236925 0.187074
vt 0.7273107 0.1427924
vt 0.7588824 0.16962
vt 0.6780311 0.1844212
vt 0.7415019 0.4395133
vt 0.7490199 0.3739579
vt 0.7288879 0.375446
vt 0.7471318 0.4744576
vt 0.6958607 0.4887199
vt 0.7482322 0.4898912
vt 0.6468123 0.4021314
vt 0.6418786 0.352926
vt 0.6264758 0.3844069
vt 0.5546131 0.4912184
vt 0.505112 0.4993424
vt 0.5100818 0.4766253
vt 0.6587336 0.4653255
vt 0.5656949 0.4875677
vt 0.5993006 0.4938375
vt 0.7468266 0.4616027
vt 0.7097069 0.4191114
vt 0.5230275 0.4380475
vt 0.5006437 0.4559226
vt 0.5313435 0.4730603
vt 0.5230275 0.4380475
vt 0.673681 0.4368732
vt 0.5313435 0.4730603
vt 0.686521 0.412003
vt 0.702703 0.2673349
vt 0.7470765 0.2674496
vt 0.6617215 0.2717981
vt 0.7337067 0.2005889
vt 0.6117486 0.2251695
vt 0.6617215 0.2717981
vt 0.6287566 0.2781044
vt 0.686521 0.412003
vt 0.7210789 0.1098585
vt 0.7473003 0.06826249
vt 0.7479994 0.1458999
vt 0.6457888 0.3992065
vt 0.6421613 0.3488708
vt 0.6271454 0.3863553
vt 0.7348462 0.05929953
vt 0.7442804 0.0095222
vt 0.753541 0.06764367
vt 0.7559557 0.4736565
vt 0.7474508 0.4915336
vt 0.6958772 0.4885389
vt 0.5310595 0.2554092
vt 0.5339481 0.2213094
vt 0.5028299 0.2323362
vt 0.6497189 0.4326257
vt 0.6434536 0.399708
vt 0.6165837 0.4207031
vt 0.5420117 0.2362245
vt 0.5126903 0.2205806
vt 0.5120052 0.2531589
vt 0.6530972 0.4062998
vt 0.6177724 0.4096429
vt 0.6383512 0.4354283
vt 0.5386527 0.225321
vt 0.50458 0.226422
vt 0.5230298 0.2548214
vt 0.6526629 0.405876
vt 0.6191832 0.4095784
vt 0.6379185 0.4366415
vt 0.5451969 0.4912391
vt 0.5463809 0.4950086
vt 0.5654975 0.4850788
vt 0.5405953 0.2366052
vt 0.5122135 0.2205424
vt 0.5115592 0.251659
vt 0.7379794 0.06815025
vt 0.7319815 0.1071414
vt 0.7613057 0.06843114
vt 0.6550361 0.4170147
vt 0.6266701 0.4012368
vt 0.6267554 0.4345491
vt 0.5201207 0.4925167
vt 0.5654975 0.4850788
vt 0.5466086 0.4957335
vn -0.2551488 0.9540777 -0.1569551
vn -0.2323648 0.9624884 -0.1400813
vn -0.121798 0.9912266 -0.0513337
vn -0.06550466 0.9978511 -0.001495227
vn -0.05814347 0.997056 0.04998618
vn 0.08322246 0.9337968 -0.3479905
vn 0.2062381 0.9187315 -0.3367468
vn -0.299401 0.9401513 0.1627102
vn -0.1123667 0.8771732 0.4668412
vn -0.284967 0.9048233 0.3163679
vn -0.006567505 0.999954 -0.007002675
vn -0.0291368 0.999564 0.004777551
vn -0.2146584 0.95007 -0.2264701
vn -0.1096129 0.9571941 -0.2678888
vn -0.06332017 0.9698612 0.2352865
vn -0.06993692 0.9973822 0.01836761
vn 0.01655096 0.9751242 0.2210404
vn 0.05454609 0.9921104 -0.1128791
vn -0.0866475 0.9811281 -0.1728576
vn 0.09291538 0.9671109 -0.2367768
vn 0.0638162 0.9948466 0.07879042
vn 0.2210722 0.9436004 0.246466
vn 0.1021792 0.9810618 0.164551
vn -0.005358818 0.9814594 0.1915952
vn -0.06930634 0.9955669 0.0635855
vn 0.173113 0.9044703 0.3898273
vn -0.09633425 0.9074934 0.4088709
vn -0.1186631 0.9867535 0.1106189
vn -0.009105562 0.9998337 -0.01579696
vn -0.1309599 0.9870113 -0.0930495
vn -0.08174946 0.9707384 -0.2257963
vn -0.009031475 0.9998356 -0.01572268
vn -0.409744 0.7280334 -0.5496156
vn -0.08172136 0.9707574 -0.2257245
vn -0.1506566 -0.9715163 0.1829169
vn 0.07960422 0.99657 -0.02261631
vn 0.2789684 0.923344 -0.263842
vn -0.1960524 0.9784243 0.0651864
vn 0.1832055 0.9814605 -0.05631387
vn -0.3825544 0.9155911 0.1238747
vn -0.1960049 0.9784374 0.06513392
vn -0.3608942 0.8883134 0.2839978
vn -0.1505722 -0.9715423 0.1828486
vn 0.2657695 0.9551004 0.1309576
vn -0.009986968 0.99993 0.006350071
vn 0.2445363 0.9687505 0.04152849
vn -0.04114648 0.9401599 0.3382398
vn -0.2518934 0.9567286 0.145671
vn 0.07630803 0.9461325 0.314659
vn 0.2870511 0.9029306 0.3198719
vn 0.1824331 0.9511495 0.2490638
vn 0.345509 0.9252784 0.1564718
vn -0.03165122 0.8915974 0.4517214
vn 0.04148954 0.9285254 0.3689433
vn 0.04445758 0.9159023 0.3989318
vn -0.03756375 0.9845712 -0.1709044
vn -0.03149906 0.9994578 -0.009596082
vn -0.1893599 0.9781325 -0.08602072
vn -0.1002722 0.9912953 0.08531632
vn -0.01064123 0.9811577 0.1929155
vn -0.1726126 0.95932 0.2234054
vn 0.2117051 0.9720511 -0.1014767
vn 0.1567171 0.986226 0.05289858
vn 0.05122921 0.9970974 -0.05632563
vn 0.09376617 0.9928913 -0.07331185
vn 0.09908807 0.9947627 0.02507505
vn -0.004350331 0.999958 -0.008069191
vn 0.05048694 0.9972357 -0.05451621
vn 0.003184215 0.9941761 0.1077203
vn -0.125908 0.9918993 -0.01682676
vn 0.09903361 0.9803569 0.1705661
vn 0.1001981 0.9501795 0.2951598
vn -0.03489018 0.9708729 0.2370409
vn 0.04826228 0.9667522 0.2511195
vn 0.07136616 0.9668382 0.2452157
vn 0.0053325 0.9627575 0.2703137
vn -0.4793186 0.8757945 -0.05690049
vn -0.2950656 0.9448678 -0.1419905
vn -0.3069141 0.9507137 0.0441272
vn -0.2465549 0.9672596 -0.06016372
vn -0.3785248 0.923721 -0.05880814
vn -0.1808646 0.9550301 -0.2349586
vn 0.0616143 0.9537019 -0.2943748
vn 0.1394442 0.9808881 -0.1356975
vn -0.03335879 0.9891444 -0.1431108
vn 0.06627221 0.977614 -0.1996967
vn 0.09203527 0.9592454 -0.2671661
vn 0.1286702 0.9786723 -0.1601391
g flower_chamomile_01_detailed_2_LOD1_0
f 3/3/3 2/2/2 1/1/1
f 3/3/3 1/1/1 4/4/4
f 7/7/7 6/6/6 5/5/5
f 10/10/10 9/9/9 8/8/8
f 9/9/9 11/11/11 8/8/8
f 14/14/14 13/13/13 12/12/12
f 17/17/17 16/16/16 15/15/15
f 20/20/20 19/19/19 18/18/18
f 23/23/23 22/22/22 21/21/21
f 26/26/26 25/25/25 24/24/24
f 27/27/27 26/26/26 24/24/24
f 28/28/28 27/27/27 24/24/24
f 31/31/31 30/30/30 29/29/29
f 34/34/34 33/33/33 32/32/32
f 37/37/37 36/36/36 35/35/35
f 38/38/38 35/35/35 36/36/36
f 39/39/39 38/38/38 36/36/36
f 40/40/40 38/38/38 39/39/39
f 43/43/43 42/42/42 41/41/41
f 46/46/46 45/45/45 44/44/44
f 49/49/49 48/48/48 47/47/47
f 52/52/52 51/51/51 50/50/50
f 55/55/55 54/54/54 53/53/53
f 58/58/58 57/57/57 56/56/56
f 61/61/61 60/60/60 59/59/59
f 64/64/64 63/63/63 62/62/62
f 67/67/67 66/66/66 65/65/65
f 70/70/70 69/69/69 68/68/68
f 73/73/73 72/72/72 71/71/71
f 76/76/76 75/75/75 74/74/74
f 79/79/79 78/78/78 77/77/77
f 82/82/82 81/81/81 80/80/80
f 85/85/85 84/84/84 83/83/83
f 88/88/88 87/87/87 86/86/86
