g grass_meadow_03_1_LOD0
v -0.1714702 0.08974551 -0.4602096
v -0.1951582 -0.007199965 -0.3917803
v -0.04136378 0.182728 -0.3093375
v -0.01362198 0.3989788 -0.453647
v 0.1438195 0.3940352 -0.157762
v 0.1679476 0.1539145 0.09455566
v 0.116368 -0.007199965 0.127965
v -0.08881661 -0.007199965 -0.2711715
v 0.2507865 -0.007199965 0.3936121
v 0.2050316 0.2684418 0.08496103
v 0.320655 0.1754148 0.4050291
v 0.3924436 0.09675486 -0.4142894
v -0.02655719 0.1505837 -0.2215373
v 0.2360978 -0.007199965 -0.4059792
v 0.09399135 0.3540845 -0.212547
v -0.05310092 0.2962658 -0.02918718
v -0.234688 0.1298764 0.02099183
v -0.2228858 -0.007199965 0.007007154
v -0.03478446 -0.007199965 -0.2357004
v -0.5059986 -0.007199965 0.2172969
v -0.2739925 0.2229976 0.1102303
v -0.5286542 0.0283901 0.3409801
v 0.3095365 0.0406164 -0.2390683
v 0.301161 -0.007199965 -0.1649677
v 0.2950982 0.1462485 0.08719636
v 0.1859458 0.2178473 0.04702078
v 0.1092568 0.1905119 0.2170216
v -0.0387636 0.0943507 0.3064247
v -0.05168343 -0.007199965 0.2485946
v 0.2822058 -0.007199965 0.08517669
v -0.115959 0.1517416 0.4091541
v -0.4646925 0.0649993 0.333758
v -0.3881932 -0.007199965 0.292463
v -0.4971805 0.03743096 -0.2528214
v -0.4050983 -0.007199965 -0.1763489
v -0.1054257 0.1093471 -0.2013203
v -0.1792794 0.1737227 -0.3342032
v -0.1038867 -0.007199965 -0.1627693
v 0.2129522 -0.007199965 -0.2047275
v 0.2326097 0.1055243 -0.2523912
v 0.4693281 -0.007199965 -0.03295918
v 0.03276889 0.1763002 -0.3323458
v 0.2904126 0.1683435 -0.3425896
v 0.5684362 0.02269052 -0.08375944
v -0.1792794 0.1737227 -0.3342032
v 0.03276889 0.1763002 -0.3323458
v -0.1054257 0.1093471 -0.2013203
v -0.5204276 0.03711591 -0.04561742
v -0.186784 0.1678248 0.1189313
v -0.4716892 -0.007199965 0.06044549
v -0.1630765 0.3240744 0.05181059
v -0.02362244 0.3890775 0.05469733
v 0.145706 0.1915533 0.02885076
v 0.1784946 -0.007199965 0.0428795
v -0.1791323 -0.007199965 0.1480288
v 0.4479371 -0.007199965 -0.01618899
v 0.1718793 0.3834528 0.04875727
v 0.4909213 0.115026 -0.02464777
v -0.1936619 0.05891693 0.5090892
v -0.1089832 -0.007199965 0.403173
v -0.2458621 0.0965624 0.1871413
v -0.3377047 0.1863734 0.2604516
v -0.3261564 0.2284835 0.04483048
v -0.2632976 0.1091954 -0.1607407
v -0.2281297 -0.007199965 -0.1657897
v -0.2202758 -0.007199965 0.1710977
v -0.2072061 -0.007199965 -0.3746847
v -0.3563439 0.2082241 -0.210658
v -0.2446509 0.08327539 -0.4265606
vt 0.3892966 0.09387229
vt 0.4328778 0.008020466
vt 0.5394723 0.1705258
vt 0.4979852 0.3353304
vt 0.6133984 0.346163
vt 0.6804957 0.1712191
vt 0.6795352 0.008020466
vt 0.5419415 0.008020466
vt 0.8032944 0.008020466
vt 0.7437962 0.3584023
vt 0.8459764 0.09611759
vt 0.3892966 0.09387229
vt 0.5394723 0.1705258
vt 0.4328778 0.008020466
vt 0.4979852 0.3353304
vt 0.6133984 0.346163
vt 0.6804957 0.1712191
vt 0.6795352 0.008020466
vt 0.5419415 0.008020466
vt 0.8032944 0.008020466
vt 0.7437962 0.3584023
vt 0.8459764 0.09611759
vt 0.3892966 0.09387229
vt 0.4328778 0.008020466
vt 0.5394723 0.1705258
vt 0.4979852 0.3353304
vt 0.6133984 0.346163
vt 0.6804957 0.1712191
vt 0.6795352 0.008020466
vt 0.5419415 0.008020466
vt 0.7437962 0.3584023
vt 0.8459764 0.09611759
vt 0.8032944 0.008020466
vt 0.3892966 0.09387229
vt 0.4328778 0.008020466
vt 0.5394723 0.1705258
vt 0.4979852 0.3353304
vt 0.5419415 0.008020466
vt 0.6795352 0.008020466
vt 0.6804957 0.1712191
vt 0.8032944 0.008020466
vt 0.6133984 0.346163
vt 0.7437962 0.3584023
vt 0.8459764 0.09611759
vt 0.4979852 0.3353304
vt 0.6133984 0.346163
vt 0.5394723 0.1705258
vt 0.3892966 0.09387229
vt 0.5394723 0.1705258
vt 0.4328778 0.008020466
vt 0.4979852 0.3353304
vt 0.6133984 0.346163
vt 0.6804957 0.1712191
vt 0.6795352 0.008020466
vt 0.5419415 0.008020466
vt 0.8032944 0.008020466
vt 0.7437962 0.3584023
vt 0.8459764 0.09611759
vt 0.3892966 0.09387229
vt 0.4328778 0.008020466
vt 0.5394723 0.1705258
vt 0.4979852 0.3353304
vt 0.6133984 0.346163
vt 0.6804957 0.1712191
vt 0.6795352 0.008020466
vt 0.5419415 0.008020466
vt 0.8032944 0.008020466
vt 0.7437962 0.3584023
vt 0.8459765 0.0961176
vn -0.2837193 0.174142 -0.9429623
vn -0.370234 -0.008494973 -0.9288997
vn -0.1084228 0.4753852 -0.8730712
vn -0.02996707 0.629099 -0.7767473
vn 0.250948 0.882857 -0.3969743
vn 0.5897501 0.6958823 0.4098082
vn 0.5732576 -0.0252122 0.8189873
vn -0.2639118 -0.01266901 -0.9644636
vn 0.439726 -0.008577455 0.8980911
vn 0.5009462 0.8283548 0.2507617
vn 0.4921494 0.3365408 0.8028258
vn 0.5685545 0.1768096 -0.8034203
vn -0.1024748 0.5256082 -0.8445324
vn 0.3930013 -0.008130312 -0.919502
vn 0.1635714 0.8216324 -0.5460445
vn -0.1704109 0.9765152 -0.1318261
vn -0.8368841 0.5445958 0.05513995
vn -0.9997628 -0.02028999 -0.007912713
vn -0.1392282 -0.01489623 -0.9901482
vn -0.8874331 -0.008155941 0.4608642
vn -0.6869567 0.6542261 0.3163522
vn -0.7827054 0.05489797 0.6199665
vn 0.6828205 0.1188504 -0.7208542
vn 0.7957748 -0.01284757 -0.6054564
vn 0.8129873 0.5066988 0.2868938
vn 0.5503821 0.8206033 0.1539147
vn 0.2725929 0.6291763 0.7278945
vn -0.1192549 0.2894813 0.9497257
vn -0.194109 -0.01501018 0.9808652
vn 0.9407421 -0.01623455 0.338734
vn -0.2236028 0.3300349 0.9171035
vn -0.744793 0.1278266 0.654938
vn -0.7375036 -0.008745312 0.6752865
vn -0.831555 0.07965999 -0.5497003
vn -0.8682055 -0.009859486 -0.4961069
vn -0.3564987 0.4174761 -0.8358364
vn -0.3608655 0.403958 -0.8405915
vn -0.4581526 -0.01905718 -0.8886692
vn 0.5979645 -0.01383287 -0.8014032
vn 0.5290443 0.3069678 -0.7911276
vn 0.9933757 -0.01017413 -0.1144605
vn 0.04845654 0.4396445 -0.8968639
vn 0.4947045 0.3597969 -0.7910839
vn 0.9769863 0.05402759 -0.2063459
vn -0.3609806 0.4039767 -0.840533
vn 0.04839752 0.439651 -0.8968638
vn -0.3565195 0.417452 -0.8358395
vn -0.9875587 0.0897335 -0.1291348
vn -0.6196554 0.6447662 0.4475532
vn -0.9904886 -0.009711564 0.1372516
vn -0.4005171 0.9071414 0.1291535
vn -0.06947282 0.9896694 0.1254119
vn 0.50439 0.8580551 0.09660347
vn 0.9673367 -0.02693748 0.2520597
vn -0.7250351 -0.0181032 0.6884739
vn 0.9973659 -0.0106416 -0.07175034
vn 0.3310325 0.9377502 0.1050806
vn 0.9563473 0.2798581 -0.08413822
vn -0.2997018 0.1094513 0.9477337
vn -0.2275399 -0.009050772 0.9737267
vn -0.7030421 0.327939 0.6310213
vn -0.6607113 0.4304828 0.6149349
vn -0.7674811 0.6321319 0.106687
vn -0.7303899 0.3593128 -0.580883
vn -0.7283809 -0.01443848 -0.6850203
vn -0.7402353 -0.01519822 0.6721762
vn -0.4033994 -0.008785293 -0.9149818
vn -0.6958648 0.4798909 -0.5343004
vn -0.4087965 0.1660882 -0.8973852
g grass_meadow_03_1_LOD0_0
f 3/3/3 2/2/2 1/1/1
f 4/4/4 3/3/3 1/1/1
f 5/5/5 3/3/3 4/4/4
f 6/6/6 3/3/3 5/5/5
f 6/6/6 7/7/7 3/3/3
f 7/7/7 8/8/8 3/3/3
f 8/8/8 2/2/2 3/3/3
f 9/9/9 7/7/7 6/6/6
f 5/5/5 10/10/10 6/6/6
f 11/11/11 6/6/6 10/10/10
f 6/6/6 11/11/11 9/9/9
f 14/14/14 13/13/13 12/12/12
f 13/13/13 15/15/15 12/12/12
f 13/13/13 16/16/16 15/15/15
f 13/13/13 17/17/17 16/16/16
f 18/18/18 17/17/17 13/13/13
f 19/19/19 18/18/18 13/13/13
f 14/14/14 19/19/19 13/13/13
f 18/18/18 20/20/20 17/17/17
f 21/21/21 16/16/16 17/17/17
f 17/17/17 22/22/22 21/21/21
f 22/22/22 17/17/17 20/20/20
f 25/25/25 24/24/24 23/23/23
f 26/26/26 25/25/25 23/23/23
f 27/27/27 25/25/25 26/26/26
f 28/28/28 25/25/25 27/27/27
f 28/28/28 29/29/29 25/25/25
f 29/29/29 30/30/30 25/25/25
f 30/30/30 24/24/24 25/25/25
f 27/27/27 31/31/31 28/28/28
f 32/32/32 28/28/28 31/31/31
f 28/28/28 32/32/32 29/29/29
f 29/29/29 32/32/32 33/33/33
f 36/36/36 35/35/35 34/34/34
f 37/37/37 36/36/36 34/34/34
f 38/38/38 35/35/35 36/36/36
f 39/39/39 38/38/38 36/36/36
f 40/40/40 39/39/39 36/36/36
f 41/41/41 39/39/39 40/40/40
f 40/40/40 36/36/36 42/42/42
f 42/42/42 43/43/43 40/40/40
f 44/44/44 40/40/40 43/43/43
f 40/40/40 44/44/44 41/41/41
f 47/47/47 46/46/46 45/45/45
f 50/50/50 49/49/49 48/48/48
f 49/49/49 51/51/51 48/48/48
f 49/49/49 52/52/52 51/51/51
f 49/49/49 53/53/53 52/52/52
f 54/54/54 53/53/53 49/49/49
f 55/55/55 54/54/54 49/49/49
f 50/50/50 55/55/55 49/49/49
f 54/54/54 56/56/56 53/53/53
f 57/57/57 52/52/52 53/53/53
f 53/53/53 58/58/58 57/57/57
f 58/58/58 53/53/53 56/56/56
f 61/61/61 60/60/60 59/59/59
f 62/62/62 61/61/61 59/59/59
f 63/63/63 61/61/61 62/62/62
f 64/64/64 61/61/61 63/63/63
f 64/64/64 65/65/65 61/61/61
f 65/65/65 66/66/66 61/61/61
f 66/66/66 60/60/60 61/61/61
f 67/67/67 65/65/65 64/64/64
f 63/63/63 68/68/68 64/64/64
f 69/69/69 64/64/64 68/68/68
f 64/64/64 69/69/69 67/67/67
