g grass_meadow_03_1_LOD1
v -0.1714702 0.08974551 -0.4602096
v -0.008138236 0.3992794 -0.4275693
v -0.1951582 -0.007199965 -0.3917803
v -0.008138236 0.3992794 -0.4275693
v -0.0492731 -0.007199965 -0.2062492
v 0.2507865 -0.007199965 0.393612
v 0.229992 0.2758248 0.1110388
v -0.1951582 -0.007199965 -0.3917803
v 0.320655 0.1754148 0.4050291
v 0.3924436 0.09675486 -0.4142894
v -0.1064439 -0.007199965 -0.143238
v 0.2360978 -0.007199965 -0.4059792
v 0.09399135 0.3540845 -0.212547
v -0.2739925 0.2229976 0.1102303
v -0.5059986 -0.007199965 0.2172969
v -0.5286542 0.0283901 0.3409801
v 0.3095365 0.0406164 -0.2390683
v 0.301161 -0.007199965 -0.1649677
v 0.2950982 0.1462485 0.08719636
v 0.1859458 0.2178473 0.04702078
v -0.115959 0.1517416 0.4091541
v 0.132716 -0.007199965 0.1583426
v -0.541555 -0.007199965 0.298463
v -0.4971805 0.03743096 -0.2528214
v -0.4050983 -0.007199965 -0.1763489
v -0.1792794 0.1737227 -0.3342032
v 0.2015694 -0.007199965 -0.167753
v 0.2904126 0.1683435 -0.3425896
v 0.4693281 -0.007199965 -0.03295918
v 0.5684362 0.02269052 -0.08375944
v 0.03276889 0.1763002 -0.3323458
v -0.1792794 0.1737227 -0.3342032
v 0.2904126 0.1683435 -0.3425896
v -0.5204276 0.03711591 -0.04561742
v -0.177761 0.3245808 0.05181059
v -0.4716892 -0.007199965 0.06044549
v 0.04301259 -0.007199965 0.07996075
v 0.1958118 0.4041133 0.04875727
v 0.5110462 0.127276 -0.02464777
v 0.4479371 -0.007199965 -0.01618899
v -0.1936619 0.05891693 0.5090892
v -0.1089832 -0.007199965 0.403173
v -0.3377047 0.2119488 0.2609435
v -0.2072061 -0.007199965 -0.3746847
v -0.3563439 0.2121588 -0.2214784
v -0.2446509 0.08327539 -0.4265606
vt 0.3892966 0.09387229
vt 0.4979852 0.3353304
vt 0.4328778 0.008020466
vt 0.4979852 0.3353304
vt 0.5419415 0.008020466
vt 0.8032944 0.008020466
vt 0.7437962 0.3584022
vt 0.4328778 0.008020466
vt 0.8459764 0.09611759
vt 0.3892966 0.09387229
vt 0.5943595 0.008020466
vt 0.4328778 0.008020466
vt 0.4979852 0.3353304
vt 0.7437962 0.3584023
vt 0.8032944 0.008020466
vt 0.8459764 0.09611759
vt 0.3892966 0.09387229
vt 0.4328778 0.008020466
vt 0.5394723 0.1705258
vt 0.4979852 0.3353304
vt 0.7437962 0.3584023
vt 0.6035452 0.008020465
vt 0.8598924 0.008020466
vt 0.3892966 0.09387229
vt 0.4328778 0.008020466
vt 0.4979852 0.3353304
vt 0.6795352 0.008020466
vt 0.7437962 0.3584023
vt 0.8032944 0.008020466
vt 0.8459764 0.09611759
vt 0.6133984 0.346163
vt 0.4979852 0.3353304
vt 0.7437962 0.3584023
vt 0.3892966 0.09387229
vt 0.4979852 0.3353304
vt 0.4328778 0.008020466
vt 0.6310123 0.008020466
vt 0.7437962 0.3584023
vt 0.8459764 0.09611759
vt 0.8032944 0.008020466
vt 0.3892966 0.09387229
vt 0.4328778 0.008020466
vt 0.4979852 0.3353304
vt 0.8032944 0.008020466
vt 0.7437962 0.3584023
vt 0.8459765 0.0961176
vn -0.2695155 0.1659477 -0.9485899
vn -0.0110791 0.6422621 -0.7664049
vn -0.3550366 -0.01541376 -0.9347253
vn -0.01115388 0.6421849 -0.7664687
vn -0.1791659 -0.03082183 -0.983336
vn 0.43699 -0.01469863 0.8993462
vn 0.5429407 0.7662196 0.3436902
vn -0.3550765 -0.01546617 -0.9347093
vn 0.4904118 0.3156424 0.8123214
vn 0.5772946 0.1674417 -0.7991834
vn -0.4926305 -0.03922687 -0.8693541
vn 0.4053448 -0.0145697 -0.9140477
vn 0.1843088 0.8169321 -0.5464907
vn -0.6748515 0.6463768 0.3560511
vn -0.8712397 -0.01462984 0.4906398
vn -0.7626444 0.04818754 0.6450205
vn 0.6985074 0.1078479 -0.7074293
vn 0.8119591 -0.02280089 -0.5832688
vn 0.8191726 0.477698 0.3174286
vn 0.5763529 0.7945369 0.1911242
vn -0.3207846 0.2270074 0.919546
vn 0.4975688 -0.07335863 0.8643169
vn -0.8274799 -0.0983896 0.5528079
vn -0.829703 0.07355409 -0.5533378
vn -0.868306 -0.01818249 -0.4956956
vn -0.3476348 0.3963457 -0.8497412
vn 0.6753111 -0.0283916 -0.7369863
vn 0.5090504 0.3472937 -0.7875624
vn 0.9956285 -0.01801073 -0.09164938
vn 0.9808015 0.04603817 -0.1894963
vn 0.06773406 0.4287976 -0.9008579
vn -0.3476348 0.3963457 -0.8497412
vn 0.5090504 0.3472937 -0.7875624
vn -0.9900216 0.08311144 -0.1137969
vn -0.4269633 0.8898488 0.1608465
vn -0.9860152 -0.0177508 0.1657077
vn 0.3766393 -0.07771261 0.9230946
vn 0.3703606 0.9193902 0.1324937
vn 0.9652355 0.254372 -0.06012707
vn 0.9986994 -0.01892862 -0.04734061
vn -0.2771945 0.09919089 0.9556801
vn -0.2018569 -0.01568204 0.9792894
vn -0.6234946 0.4604787 0.6318337
vn -0.3885593 -0.01586917 -0.9212871
vn -0.6811593 0.4772421 -0.5552134
vn -0.3956426 0.1584438 -0.9046339
g grass_meadow_03_1_LOD1_0
f 3/3/3 2/2/2 1/1/1
f 6/6/6 5/5/5 4/4/4
f 7/7/7 6/6/6 4/4/4
f 5/5/5 8/8/8 4/4/4
f 7/7/7 9/9/9 6/6/6
f 12/12/12 11/11/11 10/10/10
f 11/11/11 13/13/13 10/10/10
f 11/11/11 14/14/14 13/13/13
f 11/11/11 15/15/15 14/14/14
f 16/16/16 14/14/14 15/15/15
f 19/19/19 18/18/18 17/17/17
f 20/20/20 19/19/19 17/17/17
f 21/21/21 19/19/19 20/20/20
f 21/21/21 22/22/22 19/19/19
f 22/22/22 18/18/18 19/19/19
f 21/21/21 23/23/23 22/22/22
f 26/26/26 25/25/25 24/24/24
f 27/27/27 25/25/25 26/26/26
f 28/28/28 27/27/27 26/26/26
f 29/29/29 27/27/27 28/28/28
f 28/28/28 30/30/30 29/29/29
f 33/33/33 32/32/32 31/31/31
f 36/36/36 35/35/35 34/34/34
f 36/36/36 37/37/37 35/35/35
f 38/38/38 35/35/35 37/37/37
f 37/37/37 39/39/39 38/38/38
f 39/39/39 37/37/37 40/40/40
f 43/43/43 42/42/42 41/41/41
f 44/44/44 42/42/42 43/43/43
f 45/45/45 44/44/44 43/43/43
f 45/45/45 46/46/46 44/44/44
