g Grey_willow_03_cross
v -1.752341 0.543982 -0.0006347481
v 1.34111 0.723222 -0.0006354263
v -0.04382174 -0.002652842 -0.0006350872
v -1.968768 0.7232234 -0.0006346996
v 1.951541 1.593472 -0.0006355959
v -1.968768 1.593473 -0.0006347481
v -0.9152995 2.349171 -0.0006349661
v -0.2150249 2.390347 -0.0006351114
v -0.008615753 -0.002652842 -0.03246028
v -0.008614978 0.7232226 1.959521
v -0.008616528 0.7232225 -1.518268
v -0.008615365 1.593472 1.538835
v -0.008616141 1.593472 -1.640129
v -0.008615365 2.126488 1.28117
v -0.008615753 2.390347 0.1907324
v -0.008616141 1.897768 -1.479766
v -0.00861149 -0.002652842 -0.03050134
v -0.008611877 0.7232224 -1.517742
v -0.00861149 0.7232226 1.959521
v -0.008611877 1.593472 1.538249
v -0.008611877 1.593472 -1.639735
v -0.008611877 1.898019 -1.47956
v -0.00861149 2.390347 0.1990668
v -0.008611877 2.126509 1.280216
v -0.00861149 2.390347 0.1917621
v -0.0435737 -0.002652842 -0.0006313084
v -1.968768 0.7232234 -0.0006305816
v -1.752541 0.5448281 -0.0006306543
v 1.340465 0.723222 -0.0006318655
v -1.968768 1.593473 -0.0006306301
v 1.951541 1.593472 -0.0006321562
v -0.2153508 2.390347 -0.0006313326
v -0.9182315 2.348287 -0.0006310661
vt 0.5138016 0.3351675
vt 0.7110725 0.3808883
vt 0.6227547 0.1957308
vt 0.5 0.3808888
vt 0.75 0.6028733
vt 0.5 0.6028738
vt 0.5671802 0.7956386
vt 0.611837 0.8061421
vt 0.3770296 0.1957308
vt 0.25 0.3808885
vt 0.4717803 0.3808886
vt 0.2768274 0.6028736
vt 0.4795514 0.6028736
vt 0.2932588 0.7388363
vt 0.3627965 0.8061421
vt 0.469325 0.6804938
vt 0.8730953 0.1957308
vt 0.7782533 0.3808885
vt 1 0.3808886
vt 0.9731353 0.6028736
vt 0.7704738 0.6028736
vt 0.7806882 0.6805581
vt 0.8877349 0.8061421
vt 0.9566803 0.7388417
vt 0.8872691 0.8061421
vt 0.1272294 0.1957308
vt 0.25 0.3808887
vt 0.2362111 0.3353833
vt 0.03896859 0.3808884
vt 0.25 0.6028737
vt 0 0.6028734
vt 0.1381837 0.806142
vt 0.1830068 0.7954133
vn 0 0 1
vn 0 0 1
vn 0 0 1
vn 0 0 1
vn 0 0 1
vn 0 0 1
vn 0 0 1
vn 0 0 1
vn 1 0 0
vn 1 0 0
vn 1 0 0
vn 1 0 0
vn 1 0 0
vn 1 0 0
vn 1 0 0
vn 1 0 0
vn -1 0 0
vn -1 0 0
vn -1 0 0
vn -1 0 0
vn -1 0 0
vn -1 0 0
vn -1 0 0
vn -1 0 0
vn -1 0 0
vn 0 0 -1
vn 0 0 -1
vn 0 0 -1
vn 0 0 -1
vn 0 0 -1
vn 0 0 -1
vn 0 0 -1
vn 0 0 -1
g Grey_willow_03_cross_0
f 3/3/3 2/2/2 1/1/1
f 4/4/4 1/1/1 2/2/2
f 2/2/2 5/5/5 4/4/4
f 6/6/6 4/4/4 5/5/5
f 6/6/6 5/5/5 7/7/7
f 8/8/8 7/7/7 5/5/5
f 11/11/11 10/10/10 9/9/9
f 10/10/10 11/11/11 12/12/12
f 13/13/13 12/12/12 11/11/11
f 13/13/13 14/14/14 12/12/12
f 15/15/15 14/14/14 13/13/13
f 16/16/16 15/15/15 13/13/13
f 19/19/19 18/18/18 17/17/17
f 19/19/19 20/20/20 18/18/18
f 21/21/21 18/18/18 20/20/20
f 20/20/20 22/22/22 21/21/21
f 23/23/23 22/22/22 20/20/20
f 24/24/24 23/23/23 20/20/20
f 25/25/25 22/22/22 23/23/23
f 28/28/28 27/27/27 26/26/26
f 29/29/29 26/26/26 27/27/27
f 27/27/27 30/30/30 29/29/29
f 31/31/31 29/29/29 30/30/30
f 31/31/31 30/30/30 32/32/32
f 33/33/33 32/32/32 30/30/30
