g Grey_willow_04_cross
v 2.172157 1.009576 -0.000727911
v -1.595808 0.4240157 -0.0007269905
v -2.247891 1.009575 -0.0007268936
v 0.05652988 -0.004833716 -0.0007273781
v -0.04932102 -0.004833716 -0.0007273781
v 2.089214 2.107132 -0.000727911
v -1.75279 2.107131 -0.0007270874
v -0.8792909 3.096297 -0.0007272812
v 1.377641 3.096298 -0.0007278625
v -0.003266467 2.107131 1.644535
v -0.003267242 1.009575 -2.245347
v -0.003267242 2.107131 -1.964467
v -0.003267242 1.009576 2.243897
v -0.003268017 3.096298 0.1807643
v -0.003268017 3.096298 1.425753
v -0.003267242 0.1995909 2.243897
v -0.003267242 -0.004833716 -0.07361145
v -0.003267242 -0.004833716 0.06597131
v -0.003267242 0.6669772 -1.80703
v -0.003271893 -0.004833716 -0.07113941
v -0.003272668 1.009576 -2.245347
v -0.003272668 0.6670879 -1.807149
v -0.003271118 1.009576 2.243896
v -0.003271118 0.1870545 2.243896
v -0.003271893 -0.004833716 0.06141304
v -0.003271118 2.107131 1.645845
v -0.003272668 2.107131 -1.968202
v -0.003271893 3.096298 0.1689738
v -0.003271893 3.096298 1.418953
v -0.05006284 -0.00483362 -0.0007229694
v -2.247891 1.009575 -0.0007221458
v -1.612688 0.4344258 -0.0007223396
v 2.178749 1.009577 -0.0007238899
v 0.05683761 -0.00483362 -0.0007230179
v 2.088278 2.107132 -0.0007238899
v -1.744266 2.107131 -0.0007224365
v -0.8765973 3.096297 -0.0007227756
v 1.380974 3.096298 -0.0007236961
vt 0.7461467 0.3776064
vt 0.5363136 0.24717
vt 0.5 0.377606
vt 0.6283301 0.1516418
vt 0.6224354 0.1516418
vt 0.7415276 0.6220921
vt 0.5275715 0.6220917
vt 0.5762155 0.8424332
vt 0.701901 0.8424335
vt 0.9666224 0.6220919
vt 0.75 0.3776062
vt 0.7656419 0.6220919
vt 1 0.3776062
vt 0.8851069 0.8424333
vt 0.9544387 0.8424333
vt 1 0.1971783
vt 0.870941 0.1516417
vt 0.8787142 0.1516417
vt 0.7744093 0.3012908
vt 0.3789213 0.1516417
vt 0.5 0.3776062
vt 0.4755974 0.3013155
vt 0.25 0.3776062
vt 0.25 0.1943858
vt 0.3715396 0.1516417
vt 0.2833047 0.6220919
vt 0.4845662 0.6220919
vt 0.3655497 0.8424333
vt 0.29594 0.8424333
vt 0.1276059 0.1516418
vt 0.25 0.377606
vt 0.2146264 0.2494889
vt 0.003486291 0.3776065
vt 0.1216528 0.1516418
vt 0.008524492 0.6220921
vt 0.2219538 0.6220917
vt 0.1736345 0.8424332
vt 0.04791339 0.8424334
vn 0 0 1
vn 0 0 1
vn 0 0 1
vn 0 0 1
vn 0 0 1
vn 0 0 1
vn 0 0 1
vn 0 0 1
vn 0 0 1
vn -1 0 0
vn -1 0 0
vn -1 0 0
vn -1 0 0
vn -1 0 0
vn -1 0 0
vn -1 0 0
vn -1 0 0
vn -1 0 0
vn -1 0 0
vn 1 0 0
vn 1 0 0
vn 1 0 0
vn 1 0 0
vn 1 0 0
vn 1 0 0
vn 1 0 0
vn 1 0 0
vn 1 0 0
vn 1 0 0
vn 0 0 -1
vn 0 0 -1
vn 0 0 -1
vn 0 0 -1
vn 0 0 -1
vn 0 0 -1
vn 0 0 -1
vn 0 0 -1
vn 0 0 -1
g Grey_willow_04_cross_0
f 3/3/3 2/2/2 1/1/1
f 2/2/2 4/4/4 1/1/1
f 5/5/5 4/4/4 2/2/2
f 1/1/1 6/6/6 3/3/3
f 7/7/7 3/3/3 6/6/6
f 7/7/7 6/6/6 8/8/8
f 9/9/9 8/8/8 6/6/6
f 12/12/12 11/11/11 10/10/10
f 13/13/13 10/10/10 11/11/11
f 12/12/12 10/10/10 14/14/14
f 15/15/15 14/14/14 10/10/10
f 13/13/13 11/11/11 16/16/16
f 16/16/16 11/11/11 17/17/17
f 18/18/18 16/16/16 17/17/17
f 11/11/11 19/19/19 17/17/17
f 22/22/22 21/21/21 20/20/20
f 21/21/21 23/23/23 20/20/20
f 23/23/23 24/24/24 20/20/20
f 20/20/20 24/24/24 25/25/25
f 23/23/23 21/21/21 26/26/26
f 27/27/27 26/26/26 21/21/21
f 27/27/27 28/28/28 26/26/26
f 29/29/29 26/26/26 28/28/28
f 32/32/32 31/31/31 30/30/30
f 31/31/31 33/33/33 30/30/30
f 30/30/30 33/33/33 34/34/34
f 33/33/33 31/31/31 35/35/35
f 36/36/36 35/35/35 31/31/31
f 36/36/36 37/37/37 35/35/35
f 38/38/38 35/35/35 37/37/37
